<svg version="1.1" id="Layer_1" xmlns="http://www.w3.org/2000/svg" xmlns:xlink="http://www.w3.org/1999/xlink" x="0px" y="0px"
	 width="100%" viewBox="0 0 1200 1200" enable-background="new 0 0 1200 1200" xml:space="preserve">
<path fill="#000000" opacity="1.000000" stroke="none" 
	d="
M553.000000,1201.000000 
	C368.666656,1201.000000 184.833328,1201.000000 1.000000,1201.000000 
	C1.000000,801.000000 1.000000,401.000000 1.000000,1.000000 
	C401.000000,1.000000 801.000000,1.000000 1201.000000,1.000000 
	C1201.000000,401.000000 1201.000000,801.000000 1201.000000,1201.000000 
	C985.166687,1201.000000 769.333313,1201.000000 553.000000,1201.000000 
M536.869751,964.897217 
	C549.572388,964.931641 562.300903,965.491821 574.971191,964.868835 
	C591.224304,964.069641 607.618286,963.416870 623.606812,960.683960 
	C641.195679,957.677429 658.581665,953.016174 675.716431,947.931763 
	C701.174500,940.377502 725.044006,929.001343 747.971436,915.579041 
	C769.692078,902.863159 790.089478,888.270569 808.239258,870.937073 
	C821.978699,857.815491 834.614868,843.484619 847.163574,829.184326 
	C861.778076,812.530090 873.458801,793.745911 883.860046,774.253723 
	C895.395691,752.635742 904.776794,730.071594 911.806519,706.543945 
	C919.469299,680.897400 923.786438,654.637573 925.841614,628.043274 
	C926.766724,616.071655 925.876038,603.967651 926.030273,591.926575 
	C926.280151,572.415222 923.445679,553.246704 920.017639,534.126343 
	C914.840210,505.248596 905.763855,477.584564 893.431519,451.037781 
	C883.843384,430.398224 872.394043,410.818817 859.172363,392.196075 
	C843.861755,370.631073 825.885742,351.542297 806.778381,333.480774 
	C798.462097,325.619659 789.381226,318.459686 780.070862,311.785767 
	C768.937439,303.804993 757.573059,295.986877 745.606567,289.367737 
	C730.337585,280.921814 714.789307,272.666351 698.583069,266.314514 
	C681.069336,259.450226 662.905945,253.789001 644.568665,249.608673 
	C626.301575,245.444336 607.531860,243.136887 588.858521,241.228531 
	C576.943787,240.010895 564.796570,240.741867 552.766846,241.076508 
	C542.383179,241.365356 531.938171,241.738388 521.664368,243.134521 
	C506.955139,245.133362 492.095703,247.054214 477.812378,250.906540 
	C458.825989,256.027313 439.905273,261.941864 421.754150,269.445343 
	C405.520355,276.156189 389.947174,284.784973 374.866333,293.868805 
	C361.610687,301.853210 349.307129,311.459167 336.822968,320.673981 
	C318.062927,334.521088 301.940002,351.298950 286.917511,368.915436 
	C273.265747,384.924500 261.151642,402.187988 250.565491,420.554474 
	C238.768784,441.021149 228.957764,462.302185 221.049286,484.476288 
	C211.748032,510.555450 206.148712,537.589355 203.253937,565.027161 
	C201.584534,580.850525 202.339172,596.929321 201.996506,612.893066 
	C201.531387,634.560669 204.978851,655.807312 209.012955,676.974915 
	C213.141785,698.639587 219.228836,719.829224 228.201431,739.920410 
	C236.182831,757.792175 245.362976,775.180603 254.879669,792.301147 
	C265.971619,812.255615 279.961121,830.345764 295.652283,846.818054 
	C308.877319,860.701477 323.289856,873.520874 337.789154,886.105774 
	C354.635193,900.727539 373.553741,912.467834 393.179871,923.030823 
	C417.691040,936.223083 443.454315,946.360840 470.308105,953.539734 
	C482.100342,956.692139 494.184326,958.871704 506.235748,960.899109 
	C516.085449,962.556091 526.083496,963.331238 536.869751,964.897217 
z"/>
<path fill="#DD5A44" opacity="1.000000" stroke="none" 
	d="
M536.442749,964.697266 
	C526.083496,963.331238 516.085449,962.556091 506.235748,960.899109 
	C494.184326,958.871704 482.100342,956.692139 470.308105,953.539734 
	C443.454315,946.360840 417.691040,936.223083 393.179871,923.030823 
	C373.553741,912.467834 354.635193,900.727539 337.789154,886.105774 
	C323.289856,873.520874 308.877319,860.701477 295.652283,846.818054 
	C279.961121,830.345764 265.971619,812.255615 254.879669,792.301147 
	C245.362976,775.180603 236.182831,757.792175 228.201431,739.920410 
	C219.228836,719.829224 213.141785,698.639587 209.012955,676.974915 
	C204.978851,655.807312 201.531387,634.560669 201.996506,612.893066 
	C202.339172,596.929321 201.584534,580.850525 203.253937,565.027161 
	C206.148712,537.589355 211.748032,510.555450 221.049286,484.476288 
	C228.957764,462.302185 238.768784,441.021149 250.565491,420.554474 
	C261.151642,402.187988 273.265747,384.924500 286.917511,368.915436 
	C301.940002,351.298950 318.062927,334.521088 336.822968,320.673981 
	C349.307129,311.459167 361.610687,301.853210 374.866333,293.868805 
	C389.947174,284.784973 405.520355,276.156189 421.754150,269.445343 
	C439.905273,261.941864 458.825989,256.027313 477.812378,250.906540 
	C492.095703,247.054214 506.955139,245.133362 521.664368,243.134521 
	C531.938171,241.738388 542.383179,241.365356 552.766846,241.076508 
	C564.796570,240.741867 576.943787,240.010895 588.858521,241.228531 
	C607.531860,243.136887 626.301575,245.444336 644.568665,249.608673 
	C662.905945,253.789001 681.069336,259.450226 698.583069,266.314514 
	C714.789307,272.666351 730.337585,280.921814 745.606567,289.367737 
	C757.573059,295.986877 768.937439,303.804993 780.070862,311.785767 
	C789.381226,318.459686 798.462097,325.619659 806.778381,333.480774 
	C825.885742,351.542297 843.861755,370.631073 859.172363,392.196075 
	C872.394043,410.818817 883.843384,430.398224 893.431519,451.037781 
	C905.763855,477.584564 914.840210,505.248596 920.017639,534.126343 
	C923.445679,553.246704 926.280151,572.415222 926.030273,591.926575 
	C925.876038,603.967651 926.766724,616.071655 925.841614,628.043274 
	C923.786438,654.637573 919.469299,680.897400 911.806519,706.543945 
	C904.776794,730.071594 895.395691,752.635742 883.860046,774.253723 
	C873.458801,793.745911 861.778076,812.530090 847.163574,829.184326 
	C834.614868,843.484619 821.978699,857.815491 808.239258,870.937073 
	C790.089478,888.270569 769.692078,902.863159 747.971436,915.579041 
	C725.044006,929.001343 701.174500,940.377502 675.716431,947.931763 
	C658.581665,953.016174 641.195679,957.677429 623.606812,960.683960 
	C607.618286,963.416870 591.224304,964.069641 574.971191,964.868835 
	C562.300903,965.491821 549.572388,964.931641 536.442749,964.697266 
M662.001404,500.933563 
	C663.261414,500.620911 664.511841,500.261108 665.783020,500.003479 
	C672.832703,498.574677 678.912659,495.289124 682.845825,489.261169 
	C691.167969,476.506622 691.912659,461.765442 689.465088,447.772919 
	C685.685486,426.165222 671.426086,412.091187 651.259094,403.945953 
	C626.114502,393.790253 600.034973,394.331055 573.985718,398.262756 
	C556.515747,400.899536 539.963867,407.047913 524.581055,416.061523 
	C504.897705,427.595062 488.565735,442.776306 475.005371,461.020050 
	C461.922974,478.620758 451.878387,497.859772 446.222015,519.033569 
	C442.654877,532.386963 439.598633,546.066467 438.322327,559.786560 
	C437.147766,572.412781 438.547882,585.293091 439.016663,598.054016 
	C439.574524,613.240234 443.137665,627.827026 449.096161,641.733765 
	C455.287018,656.182678 463.793793,668.946838 476.790253,678.466064 
	C492.702942,690.121399 510.903046,694.629272 530.018433,695.876099 
	C546.103943,696.925293 561.719177,693.737854 576.649475,687.666870 
	C583.042236,685.067383 589.216858,681.931519 596.052612,678.780334 
	C594.522644,686.181580 593.270569,692.865356 591.749084,699.487122 
	C585.878357,725.038025 580.055298,750.601135 573.938904,776.093628 
	C570.990601,788.381897 566.304749,800.052002 558.361511,810.063965 
	C550.186890,820.367615 538.622192,822.127625 526.439636,822.002991 
	C517.968750,821.916260 511.444733,818.496094 506.657867,811.338196 
	C498.823669,799.623413 497.942688,787.475037 502.832733,774.389404 
	C509.298431,757.087341 524.706360,749.755981 541.692749,755.052490 
	C548.405212,757.145508 554.624023,760.821716 561.883362,764.151184 
	C562.241760,757.845764 562.895874,751.177063 562.935608,744.504761 
	C562.995178,734.507019 558.364685,727.116577 549.607178,722.215149 
	C542.525818,718.251892 534.845032,717.585754 526.939880,716.693054 
	C515.885681,715.444824 504.980530,715.591919 495.217163,720.572510 
	C472.021271,732.405334 462.677979,753.234497 461.127655,778.027222 
	C460.306458,791.160278 463.863922,803.485352 470.440308,815.071655 
	C480.448029,832.703186 496.301361,841.611267 515.459534,843.631470 
	C527.618774,844.913635 540.257324,843.497437 552.490051,841.862732 
	C580.517212,838.117371 603.107117,824.991089 618.036621,800.373169 
	C625.912903,787.385620 633.095398,773.976196 637.022644,759.160461 
	C641.776611,741.226196 646.539612,723.287415 650.832764,705.239746 
	C654.866882,688.280579 658.291016,671.176208 661.989441,654.137085 
	C666.863098,631.682922 671.742493,609.230103 676.619263,586.776672 
	C679.100342,575.353271 681.581177,563.929871 684.234314,551.713684 
	C663.974426,551.713684 644.257324,551.713684 624.459961,551.713684 
	C623.416199,556.107178 622.254089,560.826294 621.176331,565.564636 
	C616.120300,587.793823 610.567139,609.928284 606.267090,632.303284 
	C604.136108,643.391479 596.822754,648.767578 588.043091,652.849060 
	C582.860962,655.258057 576.794495,655.806580 571.095703,657.054993 
	C551.673950,661.309570 529.537842,651.468872 520.431213,631.991394 
	C515.475952,621.393066 511.708801,610.507812 510.935730,598.778320 
	C510.165436,587.090637 508.240570,575.252930 509.340668,563.721252 
	C510.992554,546.406128 514.885620,529.328308 521.038574,512.881165 
	C531.132507,485.899109 544.369812,461.029633 565.523804,440.746155 
	C577.556641,429.208527 590.669006,420.273956 607.252869,417.421997 
	C616.190491,415.885010 625.240723,416.706940 632.960327,421.676422 
	C644.816162,429.308716 647.631897,442.192047 646.508362,454.516235 
	C645.258606,468.223206 638.878662,480.709229 626.810608,490.039093 
	C629.744141,492.119568 632.358459,494.409698 635.343750,496.006653 
	C643.369751,500.300201 652.086060,501.510681 662.001404,500.933563 
z"/>
<path fill="#000000" opacity="1.000000" stroke="none" 
	d="
M661.547058,500.960876 
	C652.086060,501.510681 643.369751,500.300201 635.343750,496.006653 
	C632.358459,494.409698 629.744141,492.119568 626.810608,490.039093 
	C638.878662,480.709229 645.258606,468.223206 646.508362,454.516235 
	C647.631897,442.192047 644.816162,429.308716 632.960327,421.676422 
	C625.240723,416.706940 616.190491,415.885010 607.252869,417.421997 
	C590.669006,420.273956 577.556641,429.208527 565.523804,440.746155 
	C544.369812,461.029633 531.132507,485.899109 521.038574,512.881165 
	C514.885620,529.328308 510.992554,546.406128 509.340668,563.721252 
	C508.240570,575.252930 510.165436,587.090637 510.935730,598.778320 
	C511.708801,610.507812 515.475952,621.393066 520.431213,631.991394 
	C529.537842,651.468872 551.673950,661.309570 571.095703,657.054993 
	C576.794495,655.806580 582.860962,655.258057 588.043091,652.849060 
	C596.822754,648.767578 604.136108,643.391479 606.267090,632.303284 
	C610.567139,609.928284 616.120300,587.793823 621.176331,565.564636 
	C622.254089,560.826294 623.416199,556.107178 624.459961,551.713684 
	C644.257324,551.713684 663.974426,551.713684 684.234314,551.713684 
	C681.581177,563.929871 679.100342,575.353271 676.619263,586.776672 
	C671.742493,609.230103 666.863098,631.682922 661.989441,654.137085 
	C658.291016,671.176208 654.866882,688.280579 650.832764,705.239746 
	C646.539612,723.287415 641.776611,741.226196 637.022644,759.160461 
	C633.095398,773.976196 625.912903,787.385620 618.036621,800.373169 
	C603.107117,824.991089 580.517212,838.117371 552.490051,841.862732 
	C540.257324,843.497437 527.618774,844.913635 515.459534,843.631470 
	C496.301361,841.611267 480.448029,832.703186 470.440308,815.071655 
	C463.863922,803.485352 460.306458,791.160278 461.127655,778.027222 
	C462.677979,753.234497 472.021271,732.405334 495.217163,720.572510 
	C504.980530,715.591919 515.885681,715.444824 526.939880,716.693054 
	C534.845032,717.585754 542.525818,718.251892 549.607178,722.215149 
	C558.364685,727.116577 562.995178,734.507019 562.935608,744.504761 
	C562.895874,751.177063 562.241760,757.845764 561.883362,764.151184 
	C554.624023,760.821716 548.405212,757.145508 541.692749,755.052490 
	C524.706360,749.755981 509.298431,757.087341 502.832733,774.389404 
	C497.942688,787.475037 498.823669,799.623413 506.657867,811.338196 
	C511.444733,818.496094 517.968750,821.916260 526.439636,822.002991 
	C538.622192,822.127625 550.186890,820.367615 558.361511,810.063965 
	C566.304749,800.052002 570.990601,788.381897 573.938904,776.093628 
	C580.055298,750.601135 585.878357,725.038025 591.749084,699.487122 
	C593.270569,692.865356 594.522644,686.181580 596.052612,678.780334 
	C589.216858,681.931519 583.042236,685.067383 576.649475,687.666870 
	C561.719177,693.737854 546.103943,696.925293 530.018433,695.876099 
	C510.903046,694.629272 492.702942,690.121399 476.790253,678.466064 
	C463.793793,668.946838 455.287018,656.182678 449.096161,641.733765 
	C443.137665,627.827026 439.574524,613.240234 439.016663,598.054016 
	C438.547882,585.293091 437.147766,572.412781 438.322327,559.786560 
	C439.598633,546.066467 442.654877,532.386963 446.222015,519.033569 
	C451.878387,497.859772 461.922974,478.620758 475.005371,461.020050 
	C488.565735,442.776306 504.897705,427.595062 524.581055,416.061523 
	C539.963867,407.047913 556.515747,400.899536 573.985718,398.262756 
	C600.034973,394.331055 626.114502,393.790253 651.259094,403.945953 
	C671.426086,412.091187 685.685486,426.165222 689.465088,447.772919 
	C691.912659,461.765442 691.167969,476.506622 682.845825,489.261169 
	C678.912659,495.289124 672.832703,498.574677 665.783020,500.003479 
	C664.511841,500.261108 663.261414,500.620911 661.547058,500.960876 
z"/>
</svg>